<svg xmlns="http://www.w3.org/2000/svg" width="40" height="40" viewBox="0 0 40 40">
    <g fill="none" fill-rule="evenodd">
        <path fill="#353740"
              d="M20 40C8.954 40 0 31.046 0 20S8.954 0 20 0s20 8.954 20 20-8.954 20-20 20zm0-2c9.941 0 18-8.059 18-18S29.941 2 20 2 2 10.059 2 20s8.059 18 18 18z"/>
        <path fill="#2CC592"
              d="M21.072 16.136L26.635 6.5a1 1 0 0 1 1.732 1l-5.563 9.636A4.002 4.002 0 0 1 18 23.455a4 4 0 0 1 3.07-7.32zM19 21.723a2 2 0 1 0 2-3.465 2 2 0 0 0-2 3.465z"/>
        <rect width="2" height="4" x="19" y="32" fill="#353740" rx="1"/>
        <rect width="2" height="4" x="19" y="4" fill="#353740" rx="1"/>
        <rect width="2" height="4" x="5" y="18" fill="#353740" rx="1" transform="rotate(90 6 20)"/>
        <rect width="2" height="4" x="33" y="18" fill="#353740" rx="1" transform="rotate(90 34 20)"/>
        <path fill="#353740"
              d="M.939 3.529l2.59-2.59A3.205 3.205 0 1 1 8.06 5.47l-2.59 2.59A3.205 3.205 0 1 1 .94 3.53zm1.295 1.295a1.374 1.374 0 0 0 1.942 1.942l2.59-2.59a1.374 1.374 0 0 0-1.942-1.942l-2.59 2.59zM39.061 3.529l-2.59-2.59A3.205 3.205 0 0 0 31.94 5.47l2.59 2.59A3.205 3.205 0 0 0 39.06 3.53zm-1.295 1.295a1.374 1.374 0 1 1-1.942 1.942l-2.59-2.59a1.374 1.374 0 1 1 1.942-1.942l2.59 2.59z"/>
    </g>
</svg>
