<?xml version="1.0" encoding="UTF-8"?>
<svg width="486px" height="660px" viewBox="0 0 486 660" version="1.1" xmlns="http://www.w3.org/2000/svg"
>
    <!-- Generator: Sketch 51.2 (57519) - http://www.bohemiancoding.com/sketch -->
    <title>₽</title>
    <desc>Created with Sketch.</desc>
    <defs></defs>
    <g id="Page-1" stroke="none" stroke-width="1" fill="none" fill-rule="evenodd">
        <g id="Artboard" transform="translate(-875.000000, -396.000000)" fill="#353740">
            <path d="M875,698.065997 L946.440994,698.065997 L946.440994,396 L1130.57764,396 C1164.78899,396 1195.98123,399.629806 1224.15528,406.889527 C1252.32933,414.149247 1276.47816,425.196482 1296.60248,440.031564 C1316.72681,454.866645 1332.49063,473.646945 1343.89441,496.373027 C1355.29819,519.099109 1361,546.243745 1361,577.807747 C1361,609.37175 1354.96279,636.832021 1342.8882,660.189383 C1330.8136,683.546745 1314.37899,702.958316 1293.58385,718.424677 C1272.78872,733.891039 1248.30449,745.411727 1220.13043,752.987088 C1191.95638,760.562448 1161.43495,764.350072 1128.56522,764.350072 L1026.93789,764.350072 L1026.93789,859.988522 L1188.93789,859.988522 L1188.93789,922.484935 L1026.93789,922.484935 L1026.93789,1056 L946.440994,1056 L946.440994,922.484935 L875,922.484935 L875,859.988522 L946.440994,859.988522 L946.440994,764.350072 L875,764.350072 L875,698.065997 Z M1130.21531,698.205207 C1176.50854,698.205207 1212.90521,688.27468 1239.40641,668.413329 C1265.9076,648.551977 1279.158,618.445142 1279.158,578.091921 C1279.158,537.738699 1265.9076,508.420001 1239.40641,490.134947 C1212.90521,471.849894 1176.50854,462.707504 1130.21531,462.707504 L1026.55925,462.707504 L1026.55925,698.205207 L1130.21531,698.205207 Z"
                  id="₽"></path>
        </g>
    </g>
</svg>