<svg xmlns="http://www.w3.org/2000/svg" width="40" height="40" viewBox="0 0 40 40">
    <g fill="none" fill-rule="evenodd">
        <path fill="#2CC592"
              d="M6.6 25.571l-3.084-3.084A11.918 11.918 0 0 1 0 14.001c0-6.617 5.383-12 12-12a11.92 11.92 0 0 1 8.485 3.515L19.071 6.93a9.934 9.934 0 0 0-7.07-2.929c-5.515 0-10 4.486-10 10a9.931 9.931 0 0 0 2.93 7.072l3.082 3.084L6.6 25.571zM35.969 21.568l-.445.444c-.268.268-.294.666-.14 1.012a1.745 1.745 0 0 1-.56 2.123c-.71.525-1.722.36-2.347-.264l-3.908-3.91a1.162 1.162 0 0 0-1.643 1.642l3.909 3.91c.625.625.789 1.637.264 2.347a1.744 1.744 0 0 1-2.64.204l-3.996-3.997a1.16 1.16 0 0 0-1.642 1.642l3.887 3.887c.662.662.814 1.757.205 2.47a1.73 1.73 0 0 1-1.767.548c-.026-.006-.044.014-.034.039.298.723.339 1.52.138 2.27a.034.034 0 0 0 .03.044c1.142.086 2.312-.287 3.18-1.155a4.044 4.044 0 0 0 1.18-2.895.03.03 0 0 1 .032-.03 4.052 4.052 0 0 0 2.894-1.181 4.048 4.048 0 0 0 1.18-2.893.03.03 0 0 1 .03-.031 4.048 4.048 0 0 0 2.894-1.181 4.08 4.08 0 0 0 .644-4.91c-.276-.477-.955-.525-1.345-.135"/>
        <path fill="#353740"
              d="M21.92 31.47c-.897 0-1.794.34-2.475 1.02l-1.414 1.414a3.51 3.51 0 0 0 0 4.95 3.49 3.49 0 0 0 2.475 1.02c.897 0 1.794-.34 2.475-1.02l1.414-1.415a3.51 3.51 0 0 0 0-4.949 3.489 3.489 0 0 0-2.475-1.02m0 2c.403 0 .78.153 1.061.434a1.501 1.501 0 0 1 0 2.121l-1.415 1.414c-.28.281-.657.435-1.06.435s-.78-.154-1.06-.435a1.501 1.501 0 0 1 0-2.12l1.413-1.415a1.489 1.489 0 0 1 1.061-.435"/>
        <path fill="#353740"
              d="M18.385 27.933c-.897 0-1.794.341-2.475 1.021l-1.414 1.415a3.51 3.51 0 0 0 0 4.95 3.493 3.493 0 0 0 2.475 1.02c.897 0 1.794-.34 2.475-1.02l1.414-1.415a3.51 3.51 0 0 0 0-4.95 3.493 3.493 0 0 0-2.475-1.02m0 2a1.485 1.485 0 0 1 1.496 1.495c0 .403-.155.78-.435 1.061l-1.415 1.414c-.28.28-.657.435-1.06.435s-.78-.155-1.061-.435a1.493 1.493 0 0 1-.435-1.06c0-.404.155-.78.435-1.06l1.414-1.415a1.485 1.485 0 0 1 1.06-.436"/>
        <path fill="#353740"
              d="M14.85 24.398c-.898 0-1.795.34-2.476 1.021l-1.414 1.414a3.51 3.51 0 0 0 0 4.95 3.492 3.492 0 0 0 2.475 1.02c.897 0 1.794-.34 2.475-1.02l1.414-1.414a3.51 3.51 0 0 0 0-4.95 3.489 3.489 0 0 0-2.475-1.021m0 2c.404 0 .78.154 1.061.435a1.502 1.502 0 0 1 0 2.122l-1.415 1.414c-.28.28-.657.434-1.06.434s-.78-.154-1.06-.434a1.502 1.502 0 0 1 0-2.122l1.413-1.414a1.489 1.489 0 0 1 1.061-.435"/>
        <path fill="#353740"
              d="M11.314 20.862c-.897 0-1.794.34-2.475 1.021l-1.414 1.414a3.51 3.51 0 0 0 0 4.95 3.488 3.488 0 0 0 2.474 1.021 3.49 3.49 0 0 0 2.476-1.022l1.414-1.413a3.51 3.51 0 0 0 0-4.95 3.489 3.489 0 0 0-2.475-1.02m0 2c.403 0 .78.153 1.061.434a1.501 1.501 0 0 1 0 2.121l-1.415 1.415a1.49 1.49 0 0 1-1.061.435 1.49 1.49 0 0 1-1.06-.435 1.502 1.502 0 0 1 0-2.122l1.414-1.414a1.489 1.489 0 0 1 1.061-.435M25.5 10.087l10.243 10.244c1.829-2.226 2.597-5.1 2.116-8.03-.675-4.128-4.03-7.483-8.158-8.16-3.266-.536-6.464.481-8.772 2.79l-4.986 4.985a2.734 2.734 0 0 0 0 3.864 2.736 2.736 0 0 0 3.864 0l5.693-5.693zm10.277 13.107L25.5 12.915l-4.279 4.28a4.735 4.735 0 0 1-6.692 0 4.737 4.737 0 0 1 0-6.693l4.986-4.986c2.769-2.77 6.601-3.992 10.51-3.348 4.962.814 8.996 4.847 9.809 9.81.641 3.91-.58 7.74-3.35 10.51l-.707.706z"/>
    </g>
</svg>
