<svg xmlns="http://www.w3.org/2000/svg" width="40" height="40" viewBox="0 0 40 40">
    <g fill="none" fill-rule="evenodd">
        <path fill="#2CC592"
              d="M2 12C2 6.486 6.486 2 12 2s10 4.486 10 10a9.952 9.952 0 0 1-2.415 6.499 8.015 8.015 0 0 0-4.275-4.777C16.339 12.806 17 11.486 17 10a5 5 0 0 0-10 0c0 1.486.661 2.806 1.69 3.722a8.015 8.015 0 0 0-4.275 4.777A9.952 9.952 0 0 1 2 12m7-2c0-1.654 1.346-3 3-3s3 1.346 3 3-1.346 3-3 3-3-1.346-3-3M6.083 20.043C6.544 17.189 9.018 15 12 15c2.982 0 5.456 2.189 5.917 5.043A9.936 9.936 0 0 1 12 22a9.936 9.936 0 0 1-5.917-1.957M24 12c0-6.627-5.373-12-12-12S0 5.373 0 12s5.373 12 12 12 12-5.373 12-12"/>
        <path fill="#353740"
              d="M33.376 7.944C28.363 5.488 25.5 3 25.5 3s-.622.538-1.78 1.355c.366.56.687 1.15.971 1.762.296-.207.573-.404.809-.578 1.363 1.006 3.751 2.611 6.996 4.201 2.551 1.25 4.318 1.916 5.504 2.27v11.34c0 11.314-10.45 14.161-12.504 14.612-1.907-.41-10.857-2.815-12.295-12.023-.396.034-.795.061-1.201.061-.278 0-.549-.026-.823-.042C12.82 37.84 25.5 40 25.5 40S40 37.533 40 23.35V10.4s-1.611 0-6.624-2.456"/>
    </g>
</svg>
