<svg xmlns="http://www.w3.org/2000/svg" width="41" height="40" viewBox="0 0 41 40">
    <g fill="none" fill-rule="evenodd">
        <path fill="#FFF" d="M12 6h26c1.65 0 3-1.35 3-3s-1.35-3-3-3H12c-1.65 0-3 1.35-3 3s1.35 3 3 3"/>
        <path fill="#353740"
              d="M38 0H12c-1.65 0-3 1.35-3 3s1.35 3 3 3h26c1.65 0 3-1.35 3-3s-1.35-3-3-3m0 2c.542 0 1 .458 1 1s-.458 1-1 1H12c-.542 0-1-.458-1-1s.458-1 1-1h26"/>
        <path fill="#FFF" d="M12 40h26c1.65 0 3-1.35 3-3s-1.35-3-3-3H12c-1.65 0-3 1.35-3 3s1.35 3 3 3"/>
        <path fill="#353740"
              d="M38 34H12c-1.65 0-3 1.35-3 3s1.35 3 3 3h26c1.65 0 3-1.35 3-3s-1.35-3-3-3m0 2c.542 0 1 .458 1 1s-.458 1-1 1H12c-.542 0-1-.458-1-1s.458-1 1-1h26M35 4v5c0 5.514-4.486 10-10 10S15 14.514 15 9V4h-2v5c0 6.6 5.4 12 12 12s12-5.4 12-12V4h-2z"/>
        <path fill="#353740"
              d="M15 36v-5c0-5.514 4.486-10 10-10s10 4.486 10 10v5h2v-5c0-6.6-5.4-12-12-12s-12 5.4-12 12v5h2z"/>
        <path fill="#2CC592" d="M16 33h18v-3H16z"/>
        <path fill="#2CC592" d="M34 30c0-1.657-4.029-3-9-3s-9 1.343-9 3 4.029 3 9 3 9-1.343 9-3"/>
        <path fill="#2CC592"
              d="M26 26a1 1 0 1 1-2 0 1 1 0 0 1 2 0M26 23a1 1 0 1 1-2 0 1 1 0 0 1 2 0M32.482 14H17.517A8.989 8.989 0 0 0 25 18a8.987 8.987 0 0 0 7.482-4"/>
        <path fill="#353740"
              d="M6.606 16.712a.943.943 0 0 1-.052.322.616.616 0 0 1-.172.251.813.813 0 0 1-.306.166 1.547 1.547 0 0 1-.456.058H3.324L3.03 19.19a7.77 7.77 0 0 1 .533-.077c.171-.018.337-.027.496-.027.465 0 .876.07 1.234.212.357.14.657.334.9.58.242.245.425.533.548.864.122.332.183.687.183 1.068 0 .474-.083.907-.25 1.297-.168.391-.4.726-.696 1.006-.296.28-.649.498-1.059.654-.41.155-.858.233-1.344.233-.281 0-.55-.03-.808-.089a3.858 3.858 0 0 1-1.34-.586 4.123 4.123 0 0 1-.515-.41l.52-.713a.508.508 0 0 1 .429-.227c.11 0 .218.033.324.099.107.065.227.138.362.217.134.08.292.153.471.218.18.066.398.098.655.098.266 0 .496-.044.692-.132a1.34 1.34 0 0 0 .487-.362c.128-.153.224-.335.288-.546.063-.21.094-.436.094-.677 0-.463-.131-.82-.394-1.071-.264-.252-.646-.377-1.148-.377-.413 0-.827.077-1.243.233l-1.047-.295.747-4.38h4.457v.712zm3.655 4.257a4.414 4.414 0 0 1 .202.454 4.183 4.183 0 0 1 .208-.463l1.234-2.365a.314.314 0 0 1 .058-.081.203.203 0 0 1 .066-.043.268.268 0 0 1 .08-.017 1.56 1.56 0 0 1 .105-.003h.698v4.45h-.811V20.17a3.894 3.894 0 0 1 .018-.384L10.852 22.2a.34.34 0 0 1-.322.2h-.128a.356.356 0 0 1-.19-.05.355.355 0 0 1-.132-.15l-1.276-2.42.015.204c.004.067.006.128.006.186v2.733h-.811V18.45h.698c.039 0 .073 0 .104.003.03.002.058.008.081.017.024.01.045.023.064.043a.34.34 0 0 1 .057.081l1.243 2.374z"/>
    </g>
</svg>
