<svg xmlns="http://www.w3.org/2000/svg" width="40" height="40" viewBox="0 0 40 40">
    <g fill="none" fill-rule="evenodd">
        <path fill="#353740"
              d="M38.242 26h-8.844a4 4 0 0 0-4 4v8.845c0 .049.021.091.029.137A4.809 4.809 0 0 0 28.163 38h-.765v-8c0-1.103.898-2 2-2h8v.766c.598-.79.946-1.74.982-2.738-.047-.007-.089-.028-.138-.028M33.398 5h-11c-.55 0-1 .45-1 1s.45 1 1 1h11c.55 0 1-.45 1-1s-.45-1-1-1M33.398 10h-11c-.55 0-1 .45-1 1s.45 1 1 1h11c.55 0 1-.45 1-1s-.45-1-1-1M33.398 15h-7c-.55 0-1 .45-1 1s.45 1 1 1h7c.55 0 1-.45 1-1s-.45-1-1-1"/>
        <path fill="#353740"
              d="M36 0H13c-2.2 0-4 1.8-4 4v.714l2 1.715V4c0-1.103.897-2 2-2h23c1.103 0 2 .897 2 2v22.853c0 .758-.296 1.472-.832 2.008l-8.307 8.307a2.823 2.823 0 0 1-2.008.832H13c-1.103 0-2-.897-2-2V15.25L9 13.5V36c0 2.2 1.8 4 4 4h13.853c1.284 0 2.515-.51 3.422-1.418l8.307-8.307A4.836 4.836 0 0 0 40 26.853V4c0-2.2-1.8-4-4-4"/>
        <path fill="#2CC592"
              d="M15.043 17.718l2.675-2.675 1.67 4.345-4.345-1.67zM5.117 7.946l2.828-2.829 8.435 8.435-2.828 2.83-8.435-8.436zM2.29 5.117a1.012 1.012 0 0 1 0-1.414L3.703 2.29a1.012 1.012 0 0 1 1.414 0l1.414 1.414-2.828 2.828L2.29 5.117zm19.702 15.007l-2.573-6.079a2.745 2.745 0 0 0-.588-.87l-1.036-1.037L9.36 3.703 7.945 2.29 6.531.875a3.008 3.008 0 0 0-4.242 0L.875 2.29a3.008 3.008 0 0 0 0 4.242L2.29 7.946 3.703 9.36l8.435 8.435 1.035 1.035c.25.25.546.45.872.588l6.08 2.573c1.168.45 2.316-.698 1.866-1.867z"/>
    </g>
</svg>
