<svg xmlns="http://www.w3.org/2000/svg" width="40" height="40" viewBox="0 0 40 40">
    <g fill="none" fill-rule="evenodd">
        <path fill="#2CC592"
              d="M24.977 4.275l-14.5 6.762 6.761 14.501 14.503-6.762-6.764-14.5zm-.966 2.658l5.07 10.876-10.875 5.071-5.072-10.876 10.877-5.07z"/>
        <path fill="#353740"
              d="M3 14.524l6.762 14.501 29.002-13.524-6.761-14.5L3 14.524zm2.658.967L31.034 3.658l5.072 10.875-25.377 11.833-5.071-10.875z"/>
        <path fill="#2CC592"
              d="M19.81 13.305l.907-.422a1 1 0 1 1 .844 1.812l-.906.422-.845-1.812zm2.174 2.296a2.004 2.004 0 0 0 .967-2.657 2.005 2.005 0 0 0-2.657-.968l-.906.423-.907.422 1.268 2.72-.906.422.422.906.907-.422.423.906-.907.423.422.906.907-.423.422.906.907-.422-.423-.906 1.812-.845-.422-.907-1.812.845-.423-.906.906-.423z"/>
        <path fill="#353740"
              d="M32.84 21.822l1.267 2.712L8.73 36.367 3.658 25.492l1.965-.918-.856-1.807L1 24.523l6.762 14.502 29.002-13.523-2.111-4.53z"/>
        <path fill="#353740"
              d="M33.905 16.96l1.201 2.574L9.73 31.367 4.657 20.492l1.966-.917-.857-1.807L2 19.524l6.761 14.5 29.002-13.522-2.042-4.38z"/>
    </g>
</svg>
