<svg xmlns="http://www.w3.org/2000/svg" width="40" height="40" viewBox="0 0 40 40">
    <g fill="none" fill-rule="evenodd">
        <path fill="#353740"
              d="M9 28H3c-1.65 0-3 1.35-3 3v6c0 1.65 1.35 3 3 3h6c1.65 0 3-1.35 3-3v-6c0-1.65-1.35-3-3-3m0 2c.542 0 1 .458 1 1v6c0 .542-.458 1-1 1H3c-.542 0-1-.458-1-1v-6c0-.542.458-1 1-1h6"/>
        <path fill="#2CC592"
              d="M3 14h6c1.65 0 3 1.35 3 3v6c0 1.65-1.35 3-3 3H3c-1.65 0-3-1.35-3-3v-6c0-1.65 1.35-3 3-3zm6.243 5.171a1 1 0 0 0-1.414 0l-1.415 1.415-2.828-2.829a.999.999 0 1 0-1.414 1.414l3.535 3.536a1 1 0 0 0 1.414 0l2.122-2.12a1 1 0 0 0 0-1.416z"/>
        <path fill="#353740"
              d="M9 0H3C1.35 0 0 1.35 0 3v6c0 1.65 1.35 3 3 3h6c1.65 0 3-1.35 3-3V3c0-1.65-1.35-3-3-3m0 2c.542 0 1 .458 1 1v6c0 .542-.458 1-1 1H3c-.542 0-1-.458-1-1V3c0-.542.458-1 1-1h6"/>
        <path fill="#2CC592" d="M39 17H17a1 1 0 0 0 0 2h22a1 1 0 1 0 0-2M29 21H17a1 1 0 1 0 0 2h12a1 1 0 1 0 0-2"/>
        <path fill="#353740"
              d="M39 31H17a1 1 0 1 0 0 2h22a1 1 0 1 0 0-2M29 35H17a1 1 0 1 0 0 2h12a1 1 0 1 0 0-2M39 3H17a1 1 0 0 0 0 2h22a1 1 0 1 0 0-2M29 7H17a1 1 0 0 0 0 2h12a1 1 0 1 0 0-2"/>
    </g>
</svg>
