<?xml version="1.0" encoding="UTF-8"?>
<svg width="166px" height="40px" viewBox="0 0 166 40" version="1.1" xmlns="http://www.w3.org/2000/svg" xmlns:xlink="http://www.w3.org/1999/xlink">
    <!-- Generator: Sketch 52.5 (67469) - http://www.bohemiancoding.com/sketch -->
    <title>img/logo</title>
    <desc>Created with Sketch.</desc>
    <defs>
        <linearGradient x1="50%" y1="3.39595376%" x2="50%" y2="98.5345918%" id="linearGradient-1">
            <stop stop-color="#57E47B" offset="0%"></stop>
            <stop stop-color="#2CC592" offset="100%"></stop>
        </linearGradient>
        <path d="M15,36 L15,0.241273729 L30,6.49540723 L30,19.5612886 C30,27.12594 25,32.6055105 15,36 Z M15,36 C5,32.6055105 0,26.12594 0,18.5612886 L0,6.49540723 L15,0.241273729 L15,36 Z" id="path-2"></path>
    </defs>
    <g id="img/logo" stroke="none" stroke-width="1" fill="none" fill-rule="evenodd">
        <g id="Rectangle" transform="translate(0.000000, 2.000000)">
            <mask id="mask-3" fill="white">
                <use xlink:href="#path-2"></use>
            </mask>
            <use id="Mask" fill="url(#linearGradient-1)" xlink:href="#path-2"></use>
            <polygon fill="#21B080" opacity="0.505859375" mask="url(#mask-3)" points="15 1 30 1 30 36 15 36"></polygon>
        </g>
        <g id="Group" transform="translate(45.000000, 12.000000)">
            <path d="M70.08,13.6 C69.3399963,14.1400027 68.5516709,14.5349987 67.715,14.785 C66.8783291,15.0350013 65.993338,15.16 65.06,15.16 C63.8666607,15.16 62.7866715,14.9750019 61.82,14.605 C60.8533285,14.2349981 60.0266701,13.7200033 59.34,13.06 C58.6533299,12.3999967 58.1233352,11.6166712 57.75,10.71 C57.3766648,9.8033288 57.19,8.8133387 57.19,7.74 C57.19,6.6533279 57.3683315,5.6566712 57.725,4.75 C58.0816684,3.8433288 58.5899967,3.0633366 59.25,2.41 C59.9100033,1.7566634 60.7083286,1.2466685 61.645,0.88 C62.5816713,0.5133315 63.6299942,0.33 64.79,0.33 C65.390003,0.33 65.9499974,0.37833285 66.47,0.475 C66.9900026,0.57166715 67.4699978,0.70499915 67.91,0.875 C68.3500022,1.04500085 68.7533315,1.2466655 69.12,1.48 C69.4866685,1.7133345 69.8199985,1.9699986 70.12,2.25 L69.25,3.59 C69.116666,3.8033344 68.9433344,3.9333331 68.73,3.98 C68.5166656,4.0266669 68.2833346,3.9733341 68.03,3.82 C67.7899988,3.6733326 67.5550011,3.54166725 67.325,3.425 C67.0949989,3.30833275 66.8500013,3.2066671 66.59,3.12 C66.3299987,3.0333329 66.0466682,2.9666669 65.74,2.92 C65.4333318,2.8733331 65.080002,2.85 64.68,2.85 C64.0066633,2.85 63.3966694,2.9666655 62.85,3.2 C62.3033306,3.4333345 61.8383353,3.7633312 61.455,4.19 C61.0716647,4.6166688 60.7766677,5.129997 60.57,5.73 C60.3633323,6.330003 60.26,6.9999963 60.26,7.74 C60.26,8.540004 60.3733322,9.25499685 60.6,9.885 C60.8266678,10.5150031 61.1466646,11.0466645 61.56,11.48 C61.9733354,11.9133355 62.4683304,12.2433322 63.045,12.47 C63.6216696,12.6966678 64.2633298,12.81 64.97,12.81 C65.4500024,12.81 65.8783315,12.7616672 66.255,12.665 C66.6316686,12.5683328 66.9999982,12.4366675 67.36,12.27 L67.36,9.83 L65.72,9.83 C65.5266657,9.83 65.3750005,9.77833385 65.265,9.675 C65.1549995,9.57166615 65.1,9.4400008 65.1,9.28 L65.1,7.61 L70.08,7.61 L70.08,13.6 Z M77.53,9.47 L77.53,15 L74.53,15 L74.53,0.49 L79.09,0.49 C80.1033384,0.49 80.9699964,0.59499895 81.69,0.805 C82.4100036,1.01500105 82.9999977,1.3066648 83.46,1.68 C83.9200023,2.0533352 84.2566656,2.49833075 84.47,3.015 C84.6833344,3.53166925 84.79,4.0999969 84.79,4.72 C84.79,5.2000024 84.7216673,5.65499785 84.585,6.085 C84.4483326,6.51500215 84.2500013,6.9066649 83.99,7.26 C83.7299987,7.6133351 83.4100019,7.9266653 83.03,8.2 C82.6499981,8.4733347 82.2133358,8.6933325 81.72,8.86 C81.9133343,8.9666672 82.0949991,9.09499925 82.265,9.245 C82.4350008,9.39500075 82.586666,9.5733323 82.72,9.78 L86.1,15 L83.39,15 C82.8833308,15 82.5166678,14.8066686 82.29,14.42 L79.53,9.97 C79.4166661,9.7966658 79.2916673,9.6700004 79.155,9.59 C79.0183326,9.5099996 78.816668,9.47 78.55,9.47 L77.53,9.47 Z M77.53,7.36 L79.07,7.36 C79.5566691,7.36 79.9766649,7.29833395 80.33,7.175 C80.6833351,7.05166605 80.9733322,6.88166775 81.2,6.665 C81.4266678,6.44833225 81.5933328,6.1933348 81.7,5.9 C81.8066672,5.6066652 81.86,5.2866684 81.86,4.94 C81.86,4.2533299 81.6316689,3.7200019 81.175,3.34 C80.718331,2.9599981 80.023338,2.77 79.09,2.77 L77.53,2.77 L77.53,7.36 Z M102.22,15 L99.89,15 C99.6299987,15 99.4183341,14.938334 99.255,14.815 C99.0916658,14.6916661 98.9700004,14.5333343 98.89,14.34 L97.91,11.57 L92.13,11.57 L91.15,14.34 C91.083333,14.5066675 90.9666675,14.6583327 90.8,14.795 C90.6333325,14.9316674 90.4233346,15 90.17,15 L87.82,15 L93.49,0.49 L96.56,0.49 L102.22,15 Z M92.86,9.49 L97.18,9.49 L95.61,5.05 C95.5166662,4.8166655 95.4183338,4.5433349 95.315,4.23 C95.2116661,3.9166651 95.1100005,3.5800018 95.01,3.22 C94.9166662,3.5866685 94.8200005,3.92833175 94.72,4.245 C94.6199995,4.56166825 94.5233338,4.8366655 94.43,5.07 L92.86,9.49 Z M118.57,7.74 C118.57,8.8000053 118.391668,9.77499555 118.035,10.665 C117.678332,11.5550045 117.175003,12.3199968 116.525,12.96 C115.874997,13.6000032 115.093338,14.0999982 114.18,14.46 C113.266662,14.8200018 112.253339,15 111.14,15 L105.56,15 L105.56,0.49 L111.14,0.49 C112.253339,0.49 113.266662,0.6699982 114.18,1.03 C115.093338,1.3900018 115.874997,1.89166345 116.525,2.535 C117.175003,3.17833655 117.678332,3.9433289 118.035,4.83 C118.391668,5.7166711 118.57,6.6866614 118.57,7.74 Z M115.49,7.74 C115.49,6.9799962 115.390001,6.2966697 115.19,5.69 C114.989999,5.0833303 114.703335,4.5700021 114.33,4.15 C113.956665,3.7299979 113.501669,3.4066678 112.965,3.18 C112.428331,2.9533322 111.820003,2.84 111.14,2.84 L108.58,2.84 L108.58,12.65 L111.14,12.65 C111.820003,12.65 112.428331,12.5383345 112.965,12.315 C113.501669,12.0916656 113.956665,11.7683355 114.33,11.345 C114.703335,10.9216646 114.989999,10.4066697 115.19,9.8 C115.390001,9.1933303 115.49,8.5066705 115.49,7.74 Z" id="grad" fill="#353740"></path>
            <path d="M9.38,3.27 C9.2866662,3.4233341 9.19166715,3.53499965 9.095,3.605 C8.99833285,3.67500035 8.8733341,3.71 8.72,3.71 C8.5733326,3.71 8.41500085,3.65833385 8.245,3.555 C8.07499915,3.45166615 7.8766678,3.3400006 7.65,3.22 C7.4233322,3.0999994 7.1633348,2.98833385 6.87,2.885 C6.5766652,2.78166615 6.2333353,2.73 5.84,2.73 C5.1466632,2.73 4.6266684,2.88499845 4.28,3.195 C3.9333316,3.50500155 3.76,3.9099975 3.76,4.41 C3.76,4.7300016 3.85499905,4.99499895 4.045,5.205 C4.23500095,5.41500105 4.48499845,5.5966659 4.795,5.75 C5.10500155,5.9033341 5.4566647,6.0399994 5.85,6.16 C6.2433353,6.2800006 6.6466646,6.41166595 7.06,6.555 C7.4733354,6.69833405 7.8766647,6.8666657 8.27,7.06 C8.6633353,7.2533343 9.01499845,7.4966652 9.325,7.79 C9.63500155,8.0833348 9.88499905,8.44166455 10.075,8.865 C10.2650009,9.28833545 10.36,9.8033303 10.36,10.41 C10.36,11.0700033 10.2450011,11.6883304 10.015,12.265 C9.78499885,12.8416695 9.4533355,13.3449978 9.02,13.775 C8.5866645,14.2050021 8.05166985,14.5433321 7.415,14.79 C6.77833015,15.0366679 6.0566707,15.16 5.25,15.16 C4.7899977,15.16 4.33166895,15.1133338 3.875,15.02 C3.41833105,14.9266662 2.97833545,14.7966675 2.555,14.63 C2.13166455,14.4633325 1.7333352,14.2633345 1.36,14.03 C0.9866648,13.7966655 0.6600014,13.5366681 0.38,13.25 L1.26,11.83 C1.3333337,11.7233328 1.4299994,11.6350004 1.55,11.565 C1.6700006,11.4949997 1.796666,11.46 1.93,11.46 C2.1100009,11.46 2.299999,11.526666 2.5,11.66 C2.700001,11.793334 2.9299987,11.9399992 3.19,12.1 C3.4500013,12.2600008 3.75166495,12.406666 4.095,12.54 C4.43833505,12.673334 4.8499976,12.74 5.33,12.74 C6.0300035,12.74 6.57166475,12.5800016 6.955,12.26 C7.33833525,11.9399984 7.53,11.4633365 7.53,10.83 C7.53,10.4633315 7.43500095,10.1666678 7.245,9.94 C7.05499905,9.7133322 6.8066682,9.5233341 6.5,9.37 C6.1933318,9.2166659 5.8433353,9.08500055 5.45,8.975 C5.0566647,8.86499945 4.6533354,8.743334 4.24,8.61 C3.8266646,8.476666 3.4233353,8.3166676 3.03,8.13 C2.6366647,7.9433324 2.2866682,7.6966682 1.98,7.39 C1.6733318,7.0833318 1.42500095,6.7033356 1.235,6.25 C1.04499905,5.7966644 0.95,5.2333367 0.95,4.56 C0.95,4.0199973 1.0566656,3.4966692 1.27,2.99 C1.4833344,2.4833308 1.7966646,2.0333353 2.21,1.64 C2.6233354,1.2466647 3.13166365,0.9300012 3.735,0.69 C4.33833635,0.4499988 5.0299961,0.33 5.81,0.33 C6.6833377,0.33 7.49166295,0.46499865 8.235,0.735 C8.97833705,1.00500135 9.6066641,1.3799976 10.12,1.86 L9.38,3.27 Z M14.54,15 L14.54,0.49 L19.69,0.49 C20.6633382,0.49 21.4949965,0.58166575 22.185,0.765 C22.8750035,0.94833425 23.4383311,1.20833165 23.875,1.545 C24.3116688,1.88166835 24.629999,2.2899976 24.83,2.77 C25.030001,3.2500024 25.13,3.7866637 25.13,4.38 C25.13,4.713335 25.0816671,5.0333318 24.985,5.34 C24.8883328,5.6466682 24.7383343,5.93499865 24.535,6.205 C24.3316656,6.47500135 24.0700016,6.7199989 23.75,6.94 C23.4299984,7.1600011 23.0500022,7.3466659 22.61,7.5 C24.543343,7.9533356 25.51,9.0166583 25.51,10.69 C25.51,11.3033364 25.3916678,11.8733307 25.155,12.4 C24.9183321,12.9266693 24.5733356,13.3833314 24.12,13.77 C23.6666644,14.1566686 23.1083366,14.4583323 22.445,14.675 C21.7816633,14.8916678 21.0200043,15 20.16,15 L14.54,15 Z M17.54,8.73 L17.54,12.7 L20.11,12.7 C20.5900024,12.7 20.9849985,12.6416673 21.295,12.525 C21.6050015,12.4083328 21.8533324,12.2533343 22.04,12.06 C22.2266676,11.8666657 22.3566663,11.6450013 22.43,11.395 C22.5033337,11.1449988 22.54,10.886668 22.54,10.62 C22.54,10.3266652 22.4966671,10.0633345 22.41,9.83 C22.3233329,9.5966655 22.1833343,9.39833415 21.99,9.235 C21.7966657,9.07166585 21.5450015,8.9466671 21.235,8.86 C20.9249985,8.7733329 20.5433356,8.73 20.09,8.73 L17.54,8.73 Z M17.54,6.69 L19.51,6.69 C19.9300021,6.69 20.3033317,6.65500035 20.63,6.585 C20.9566683,6.51499965 21.2299989,6.4033341 21.45,6.25 C21.6700011,6.0966659 21.8383328,5.89500125 21.955,5.645 C22.0716672,5.39499875 22.13,5.0933351 22.13,4.74 C22.13,4.3799982 22.0816671,4.0733346 21.985,3.82 C21.8883328,3.5666654 21.740001,3.3633341 21.54,3.21 C21.339999,3.0566659 21.0866682,2.94500035 20.78,2.875 C20.4733318,2.80499965 20.1100021,2.77 19.69,2.77 L17.54,2.77 L17.54,6.69 Z M39.05,0.49 L39.05,2.84 L32.83,2.84 L32.83,6.57 L37.67,6.57 L37.67,8.84 L32.83,8.84 L32.83,12.65 L39.05,12.65 L39.05,15 L29.81,15 L29.81,0.49 L39.05,0.49 Z M46.29,9.47 L46.29,15 L43.29,15 L43.29,0.49 L47.85,0.49 C48.8633384,0.49 49.7299964,0.59499895 50.45,0.805 C51.1700036,1.01500105 51.7599977,1.3066648 52.22,1.68 C52.6800023,2.0533352 53.0166656,2.49833075 53.23,3.015 C53.4433344,3.53166925 53.55,4.0999969 53.55,4.72 C53.55,5.2000024 53.4816673,5.65499785 53.345,6.085 C53.2083326,6.51500215 53.0100013,6.9066649 52.75,7.26 C52.4899987,7.6133351 52.1700019,7.9266653 51.79,8.2 C51.4099981,8.4733347 50.9733358,8.6933325 50.48,8.86 C50.6733343,8.9666672 50.8549991,9.09499925 51.025,9.245 C51.1950008,9.39500075 51.346666,9.5733323 51.48,9.78 L54.86,15 L52.15,15 C51.6433308,15 51.2766678,14.8066686 51.05,14.42 L48.29,9.97 C48.1766661,9.7966658 48.0516673,9.6700004 47.915,9.59 C47.7783326,9.5099996 47.576668,9.47 47.31,9.47 L46.29,9.47 Z M46.29,7.36 L47.83,7.36 C48.3166691,7.36 48.7366649,7.29833395 49.09,7.175 C49.4433351,7.05166605 49.7333322,6.88166775 49.96,6.665 C50.1866678,6.44833225 50.3533328,6.1933348 50.46,5.9 C50.5666672,5.6066652 50.62,5.2866684 50.62,4.94 C50.62,4.2533299 50.3916689,3.7200019 49.935,3.34 C49.478331,2.9599981 48.783338,2.77 47.85,2.77 L46.29,2.77 L46.29,7.36 Z" id="sber" fill="#2CC592"></path>
        </g>
    </g>
</svg>